<?xml version="1.0" standalone="no"?>
<!DOCTYPE svg PUBLIC "-//W3C//DTD SVG 20010904//EN" "http://www.w3.org/TR/2001/REC-SVG-20010904/DTD/svg10.dtd">
<svg version="1.0" xmlns="http://www.w3.org/2000/svg" width="500.000000pt" height="467.000000pt"
    viewBox="0 0 500.000000 467.000000" preserveAspectRatio="xMidYMid meet">

    <g transform="translate(0.000000,467.000000) scale(0.100000,-0.100000)" fill="#000000" stroke="none">
        <path d="M2345 4299 c-355 -29 -715 -145 -1002 -322 -381 -237 -693 -610 -847
-1013 -202 -530 -137 -1201 163 -1684 235 -378 651 -710 1096 -875 377 -140
813 -164 1245 -69 597 132 1063 462 1363 966 457 767 338 1723 -293 2358 -383
385 -843 596 -1394 640 -143 11 -184 11 -331 -1z m445 -264 c428 -70 809 -275
1099 -591 273 -299 411 -641 428 -1059 20 -510 -166 -952 -555 -1315 -48 -45
-94 -95 -102 -110 l-15 -29 -48 107 c-27 59 -51 117 -54 129 -4 17 14 40 92
115 54 51 120 107 148 124 78 49 93 93 60 175 -14 36 -15 49 -3 106 29 146 -2
353 -72 486 -73 138 -234 258 -414 308 -212 59 -504 -3 -654 -138 -122 -110
-220 -258 -220 -332 0 -14 -12 -66 -26 -114 -23 -78 -25 -94 -15 -134 7 -25
23 -62 36 -82 31 -45 31 -68 0 -111 -29 -40 -31 -60 -9 -107 20 -40 46 -60 94
-69 30 -7 33 -5 28 14 -4 12 -5 22 -4 22 2 0 17 -22 35 -50 44 -68 139 -152
216 -189 77 -38 195 -69 307 -81 l83 -9 -90 4 c-50 3 -136 16 -193 30 -56 15
-112 25 -124 23 -44 -6 -128 -203 -143 -333 -8 -68 -24 -139 -31 -133 -2 2
-58 197 -124 433 -66 236 -126 435 -133 442 -21 22 -279 87 -287 73 -9 -14
-50 35 -50 59 0 23 8 31 86 87 88 63 148 98 197 114 20 6 37 15 37 18 0 4 -14
25 -30 46 -47 62 -42 70 50 82 27 4 50 10 50 15 0 4 -9 34 -21 65 -26 68 -26
69 89 114 45 18 84 36 87 40 2 4 -41 36 -96 72 l-101 65 168 74 c92 42 169 80
171 86 2 5 -49 32 -114 58 -65 26 -121 51 -126 54 -4 4 45 56 109 116 135 126
141 111 -58 140 -71 11 -128 22 -128 25 0 3 38 70 85 149 46 80 83 147 81 149
-3 2 -68 -17 -147 -43 -95 -31 -145 -43 -152 -36 -14 14 -25 90 -33 231 -4 77
-11 120 -18 120 -36 0 -216 -121 -280 -189 -17 -17 -33 -31 -36 -31 -4 0 -56
56 -116 125 -106 121 -134 144 -134 108 0 -36 -63 -279 -75 -292 -12 -12 -35
-7 -155 33 -78 26 -143 46 -145 44 -2 -2 17 -63 42 -137 39 -115 43 -135 31
-147 -10 -10 -68 -19 -194 -29 -98 -8 -180 -15 -182 -15 -1 0 34 -42 79 -92
114 -129 131 -154 127 -180 -2 -16 -39 -47 -125 -108 -68 -47 -123 -88 -123
-91 0 -4 18 -9 39 -13 71 -11 152 -49 202 -94 27 -24 49 -49 49 -55 0 -6 -39
-51 -86 -98 l-87 -87 74 -22 c123 -37 149 -50 149 -74 0 -11 -9 -55 -20 -96
-11 -41 -20 -77 -20 -79 0 -2 39 -2 87 0 85 4 88 3 100 -21 7 -14 13 -42 13
-62 0 -20 4 -39 9 -42 11 -7 91 24 91 36 0 4 -12 27 -27 50 -41 66 -72 143
-93 232 -22 92 -25 138 -5 61 8 -27 33 -102 57 -165 37 -98 50 -122 93 -166
31 -31 71 -59 107 -74 31 -13 60 -30 63 -38 15 -39 -4 -51 -153 -97 -220 -68
-206 -59 -237 -162 -63 -207 -127 -408 -131 -413 -3 -3 -10 3 -16 13 -5 10
-38 51 -72 90 -341 392 -470 746 -453 1242 9 260 59 455 173 675 245 471 730
832 1264 939 58 12 146 25 195 30 117 13 355 5 475 -14z m-537 -2666 c54 -103
97 -199 97 -214 0 -21 -16 -43 -67 -92 l-68 -64 65 -62 c36 -34 72 -71 80 -82
15 -20 -12 2 -119 98 l-54 48 71 65 c59 54 72 71 72 96 0 19 -38 104 -100 226
-55 107 -100 198 -100 201 0 13 32 -45 123 -220z m-649 4 c-41 -104 -74 -200
-74 -214 0 -20 17 -41 70 -88 64 -57 86 -91 60 -91 -5 0 -10 5 -10 12 0 7 -31
42 -70 79 -40 39 -70 76 -70 88 0 29 152 401 163 401 3 0 -28 -84 -69 -187z" />
    </g>
</svg>